<?xml version="1.0" encoding="utf-8"?>
<!-- Generator: Adobe Illustrator 26.0.1, SVG Export Plug-In . SVG Version: 6.00 Build 0)  -->
<svg version="1.1" id="Layer_3" xmlns="http://www.w3.org/2000/svg" xmlns:xlink="http://www.w3.org/1999/xlink" x="0px" y="0px"
	 viewBox="0 0 841.89 595.28" style="enable-background:new 0 0 841.89 595.28;" xml:space="preserve">
<style type="text/css">
	.st0{fill:none;stroke:#000000;stroke-width:5;stroke-linecap:round;stroke-linejoin:round;stroke-miterlimit:10;}
</style>
<g>
	<g>
		<path d="M776.32,310.34c3.22,0,3.22-5,0-5C773.11,305.34,773.1,310.34,776.32,310.34L776.32,310.34z"/>
	</g>
</g>
<path class="st0" d="M505.87,324.29c0,0,7.1-43.15,21.2-66c1.03-1.67,3.6-0.95,3.59,1.01c-0.04,15.5,0.4,54.32,5.99,50.8
	c6.97-4.39,29.94-50.06,29.94-50.06s-11.87,56-3.61,54.71c8.26-1.29,13.94-17.1,13.94-17.1s-2.9,16.78,1.94,14.27
	c4.84-2.52,10.06-14.27,10.06-14.27s0.39,12.52,4.45,10.98c4.06-1.55,6.77-12,6.77-12s2.13,18.58,10.26,11.81
	c8.13-6.77,14.13-47.61,14.13-47.61s-3.68,51.68,4.45,50.13c8.13-1.55,11.61-19.74,11.61-19.74s1.94,33.29,11.42,1.94
	c0,0,1.35,18,10.65,7.74c9.29-10.26,7.16-29.61,7.16-29.61s-3.1,35.81,1.94,36.19c5.03,0.39,92.32,0,92.32,0"/>
<path class="st0" d="M367.74,271.26c0,0-7.16,59.81,3.1,46.84s18.39-33.68,18.39-33.68s-4.45,36.97,1.74,31.55S402,295.6,402,295.6
	s0,36.12,14.71,0c0,0,1.35,30.82,15.29-2.66c0,0-6.97,30.59,16.26,5.81c0,0,6.58,13.74,26.13,11.42"/>
<path class="st0" d="M334.26,228.29v102.58c0,0,55.74-26.32-8.52-38.71c-64.26-12.39-160.26-6.58-64.65-27.48
	s240.9-9.03,240.77,32.96c-0.1,33.37-113.03,74.65-240,80.46s-228-25.16-190.06-66.19s184.93-106.55,409.55-99.61
	c217.29,6.71,341.71,141.94,46.48,173.42"/>
</svg>
